<svg id="logosandtypes_com" xmlns="http://www.w3.org/2000/svg" viewBox="0 0 150 150.2"><style>.st1{fill:#fcce08}.st2{fill:#09a0b6}</style><g id="Layer_3_2_"><g id="Layer_2_1_"><path id="Layer_3" d="M0 .2h150v150H0V.2z" fill="none"/></g></g><g id="iipay"><path id="_Path_3" class="st1" d="M122 80.9c0 6.8-1.5 9-3.5 10.3-11.4-24-40.1-34.3-64.1-22.9-10 4.8-18.1 12.8-22.9 22.9-3.6 1.5-4.4-5.5-3.6-10.3 5.7-26 31.3-42.4 57.3-36.7 18.4 4 32.7 18.3 36.8 36.7z"/><path id="_Path_6" class="st1" d="M122 45.9c0 7.7 0 8.4-3.5 10.3-6-12.7-17.3-22.1-30.9-25.8-.7-.2-1.1-.8-1.1-1.5V11.5c0-.9.6-1.6 1.5-1.6.2 0 .3 0 .5.1 16.9 4.9 29.8 18.7 33.5 35.9z"/><path id="_Path_7" class="st1" d="M63.5 11.5V29c0 .7-.5 1.3-1.1 1.5-13.5 3.7-24.8 13.1-30.9 25.7-5-1.7-2.7-6.7-3.5-10.3 3.8-17.2 16.6-31 33.5-36 .8-.2 1.7.2 1.9 1.1 0 .2.1.4.1.5z"/><path id="_Path_" class="st2" d="M63.5 118.5v17.4c0 .9-.7 1.5-1.5 1.6-.1 0-.3 0-.4-.1-24.3-7.1-39-31.8-33.6-56.5.8 3.6 2 7 3.5 10.3 6 12.7 17.3 22.1 30.8 25.8.7.2 1.1.8 1.2 1.5z"/><path id="_Path_2" class="st2" d="M123.1 91.2c0 21.4-14.1 40.3-34.7 46.2-.8.2-1.7-.3-1.9-1.1 0-.1-.1-.3-.1-.4v-17.4c0-.7.5-1.3 1.1-1.5 13.6-3.7 24.8-13.2 30.8-25.9 1.6-3.3 2.8-6.7 3.6-10.3.8 3.5 1.2 6.9 1.2 10.4z"/><path id="_Path_4" class="st2" d="M63.5 83.6V101c0 .9-.7 1.5-1.5 1.6-.1 0-.3 0-.4-.1C37.3 95.4 22.6 70.7 28 46c.8 3.6 2 7 3.5 10.3 6 12.7 17.3 22.1 30.8 25.8.7.1 1.1.8 1.2 1.5z"/><path id="_Path_5" class="st2" d="M123.1 56.2c0 21.4-14.1 40.3-34.7 46.2-.8.2-1.7-.3-1.9-1.1 0-.1-.1-.3-.1-.4V83.6c0-.7.5-1.3 1.1-1.5 13.6-3.7 24.8-13.1 30.8-25.8 1.6-3.3 2.8-6.7 3.6-10.3.8 3.3 1.2 6.8 1.2 10.2z"/></g></svg>