<?xml version="1.0" encoding="UTF-8"?>
<svg id="_レイヤー_2" data-name="レイヤー 2" xmlns="http://www.w3.org/2000/svg" viewBox="0 0 381.2 70.74">
  <defs>
    <style>
      .cls-1 {
        fill: #231815;
      }

      .cls-1, .cls-2, .cls-3, .cls-4 {
        stroke-width: 0px;
      }

      .cls-2 {
        fill: #00a67a;
      }

      .cls-3 {
        fill: #fff;
      }

      .cls-4 {
        fill: #004698;
      }
    </style>
  </defs>
  <g id="_ヘッダ" data-name="ヘッダ">
    <g>
      <path class="cls-1" d="M136.11,30.73c0,.17,0,7.06,0,7.12,0,.6-.04,1.31-.49,1.79-.51.54-1.31.59-2.09.59-.42,0-1.21-.12-1.74-.93-.15-.24-.25-.96-.25-1.72,0-.13,0-.27.01-.4h1.59v1.08c.02.6.37.72.66.72.73,0,.73-.6.73-1.09v-7.17h1.59"/>
      <path class="cls-1" d="M141.69,30.73c.03.13,2.05,9.06,2.1,9.27h-1.7c-.03-.14-.47-2.39-.47-2.39h-2.21s-.44,2.26-.47,2.39h-1.7c.05-.21,2.18-9.14,2.21-9.27h2.24M140.54,31.68l-.34,1.93-.55,2.79h1.73l-.5-2.79-.34-1.93Z"/>
      <path class="cls-1" d="M155.35,30.73c.03.13,2.05,9.06,2.1,9.27h-1.7c-.03-.14-.47-2.39-.47-2.39h-2.21s-.44,2.26-.47,2.39h-1.7c.05-.21,2.18-9.14,2.21-9.27h2.24M154.2,31.68l-.34,1.93-.55,2.79h1.73l-.5-2.79-.34-1.93Z"/>
      <path class="cls-1" d="M214.74,30.73c.03.13,2.05,9.06,2.1,9.27h-1.7c-.03-.14-.47-2.39-.47-2.39h-2.21s-.44,2.26-.47,2.39h-1.7c.05-.21,2.18-9.14,2.21-9.27h2.24M213.59,31.68l-.34,1.93-.55,2.79h1.73l-.5-2.79-.34-1.93Z"/>
      <path class="cls-1" d="M308.1,30.73c.03.13,2.06,9.06,2.1,9.27h-1.71c-.02-.14-.47-2.39-.47-2.39h-2.21s-.44,2.26-.47,2.39h-1.7c.05-.21,2.18-9.14,2.21-9.27h2.24M306.95,31.68l-.34,1.93-.55,2.79h1.73l-.5-2.79-.34-1.93Z"/>
      <path class="cls-1" d="M246.53,30.73c.03.13,2.05,9.06,2.1,9.27h-1.7c-.03-.14-.47-2.39-.47-2.39h-2.21s-.44,2.26-.47,2.39h-1.7c.05-.21,2.18-9.14,2.21-9.27h2.24M245.38,31.68l-.34,1.93-.55,2.79h1.73l-.5-2.79-.34-1.93Z"/>
      <path class="cls-1" d="M148.54,30.73c1.91,0,2.12,1.81,2.12,2.59,0,.56-.11,1.59-.85,2.17-.59.47-1.37.56-1.92.55h-1.27v3.96h-1.59v-9.27h3.51M146.7,31.94h-.09v2.9h1.03c.94,0,1.38-.5,1.38-1.56,0-1.14-.47-1.34-1.51-1.34h-.81Z"/>
      <path class="cls-1" d="M160.25,33.07s.02,6.77.02,6.93h-1.59v-9.27h1.68c.04.11,2.12,5.52,2.55,7.04,0,0,0-6.88,0-7.04h1.58v9.27h-1.69c-.04-.11-1.35-3.31-1.35-3.31-.45-1.08-.76-2.08-1.2-3.62"/>
      <path class="cls-1" d="M176.6,33.07s.02,6.77.02,6.93h-1.59v-9.27h1.68c.04.11,2.13,5.52,2.55,7.04,0,0,0-6.88,0-7.04h1.58v9.27h-1.69c-.04-.11-1.35-3.31-1.35-3.31-.45-1.08-.76-2.08-1.2-3.62"/>
      <path class="cls-1" d="M204.82,33.07s.02,6.77.02,6.93h-1.59v-9.27h1.68c.04.11,2.12,5.52,2.55,7.04,0,0,0-6.88,0-7.04h1.59v9.27h-1.69c-.04-.11-1.35-3.31-1.35-3.31-.45-1.08-.76-2.08-1.2-3.62"/>
      <path class="cls-1" d="M236.62,33.07s.01,6.77.01,6.93h-1.58v-9.27h1.68c.04.11,2.12,5.52,2.55,7.04,0,0,0-6.88,0-7.04h1.58v9.27h-1.69c-.04-.11-1.35-3.31-1.35-3.31-.45-1.08-.76-2.08-1.2-3.62"/>
      <path class="cls-1" d="M329.98,33.07s.02,6.77.02,6.93h-1.58v-9.27h1.68c.04.11,2.12,5.52,2.55,7.04,0,0,0-6.88,0-7.04h1.58v9.27h-1.69c-.04-.11-1.35-3.31-1.35-3.31-.45-1.08-.76-2.08-1.2-3.62"/>
      <path class="cls-1" d="M356.19,33.07s.02,6.77.02,6.93h-1.59v-9.27h1.68c.04.11,2.12,5.52,2.55,7.04,0,0,0-6.88,0-7.04h1.58v9.27h-1.69c-.04-.11-1.35-3.31-1.35-3.31-.45-1.08-.76-2.08-1.2-3.62"/>
      <path class="cls-1" d="M173.07,30.73v9.27h-1.59v-9.27h1.59"/>
      <path class="cls-1" d="M187.85,30.73v1.21h-2.05v8.07h-1.59v-8.07h-2.07v-1.21h5.7"/>
      <path class="cls-1" d="M193.88,30.73v1.21h-3.2v2.56h2.95v1.21h-2.95v3.09h3.2v1.21h-4.79v-9.27h4.79"/>
      <path class="cls-1" d="M199.95,35.21c.89.12,1.28.72,1.28,1.73,0,0,0,.27,0,.35,0,1.57.13,2.41.38,2.66v.07h-1.78c-.16-.5-.16-1.32-.17-1.94v-.45c-.01-.58-.03-1.37-.67-1.55-.45-.13-.94-.13-1.41-.13h-.52v4.07h-1.59v-9.27h3.25c1.75,0,2.59.71,2.59,2.18,0,1.35-.45,2.17-1.37,2.29M197.06,31.94v2.79h1.47c.43-.03,1.12-.25,1.12-1.45,0-1.09-.46-1.32-1.2-1.34h-1.4Z"/>
      <path class="cls-1" d="M301.06,35.21c.89.12,1.28.72,1.28,1.73,0,0,0,.27,0,.35,0,1.57.12,2.41.38,2.66v.07h-1.78c-.16-.5-.16-1.32-.17-1.94v-.45c-.01-.58-.03-1.37-.67-1.55-.45-.13-.94-.13-1.41-.13h-.52v4.07h-1.58v-9.27h3.25c1.75,0,2.59.71,2.59,2.18,0,1.35-.45,2.17-1.37,2.29M298.18,31.94v2.79h1.48c.42-.03,1.12-.25,1.12-1.45,0-1.09-.45-1.32-1.19-1.34h-1.4Z"/>
      <path class="cls-1" d="M379.53,35.21c.89.12,1.28.72,1.28,1.73v.35c0,1.57.12,2.41.38,2.66v.07h-1.78c-.15-.5-.16-1.32-.17-1.94v-.45c-.01-.58-.03-1.37-.67-1.55-.45-.13-.94-.13-1.41-.13h-.52v4.07h-1.58v-9.27h3.25c1.75,0,2.59.71,2.59,2.18,0,1.35-.45,2.17-1.37,2.29M376.65,31.94v2.79h1.48c.42-.03,1.12-.25,1.12-1.45,0-1.09-.46-1.32-1.2-1.34h-1.4Z"/>
      <path class="cls-1" d="M222.44,30.73v1.21h-2.05v8.07h-1.58v-8.07h-2.07v-1.21h5.71"/>
      <path class="cls-1" d="M225.33,30.73v9.27h-1.59v-9.27h1.59"/>
      <path class="cls-1" d="M227.21,35.96v-1.35c.08-2.56.32-4.11,3-4.11s2.92,1.55,3,4.11v1.35c0,2.58-.21,4.27-3,4.27s-3-1.69-3-4.27M229.31,32.09c-.49.49-.48,1.42-.47,1.98v2.78c0,.64,0,2.14,1.36,2.14s1.36-1.43,1.36-2.29v-2.42c0-.66,0-1.67-.52-2.19-.21-.22-.5-.33-.84-.33-.37,0-.67.11-.89.33Z"/>
      <path class="cls-1" d="M251.45,30.73v8.06h3.28v1.21h-4.86v-9.27h1.58"/>
      <path class="cls-1" d="M260.46,35.96v-1.35c.08-2.56.32-4.11,3-4.11,1.53.02,2.37.82,2.49,2.36,0,0,.02.45.03.62h-1.56c0-.09-.02-.22-.02-.22-.05-.61-.12-1.52-.94-1.52-.37,0-.67.11-.89.33-.49.49-.48,1.42-.47,1.98v.16s0,2.62,0,2.62c0,.64,0,2.14,1.36,2.14.93,0,.96-1.23.97-1.96,0,0,0-.12,0-.2h1.59c0,.07-.03.45-.03.45-.1,2.05-.89,2.97-2.55,2.97-2.79,0-3-1.69-3-4.27"/>
      <path class="cls-1" d="M267.6,35.96v-1.35c.08-2.56.32-4.11,3-4.11s2.92,1.55,3,4.11v1.35c0,2.58-.21,4.27-3,4.27s-3-1.69-3-4.27M269.71,32.09c-.49.49-.48,1.42-.48,1.98v.16s0,2.62,0,2.62c0,.64,0,2.14,1.36,2.14s1.36-1.43,1.36-2.29v-2.42c0-.66,0-1.67-.52-2.19-.21-.22-.5-.33-.84-.33-.37,0-.67.11-.89.33Z"/>
      <path class="cls-1" d="M275.36,35.96v-1.35c.08-2.56.32-4.11,3-4.11s2.92,1.55,3,4.11v1.35c0,2.58-.21,4.27-3,4.27s-3-1.69-3-4.27M277.47,32.09c-.49.49-.48,1.42-.48,1.98v.16s0,2.62,0,2.62c0,.64,0,2.14,1.36,2.14s1.36-1.43,1.36-2.29v-2.42c0-.66,0-1.67-.52-2.19-.21-.22-.5-.33-.84-.33-.37,0-.67.11-.89.33Z"/>
      <path class="cls-1" d="M286.71,30.73c1.91,0,2.12,1.81,2.12,2.59,0,.56-.11,1.59-.85,2.17-.59.47-1.37.56-1.92.55h-1.27v3.96h-1.59v-9.27h3.52M284.87,31.94h-.09v2.9h1.03c.94,0,1.37-.5,1.37-1.56,0-1.14-.47-1.34-1.51-1.34h-.81Z"/>
      <path class="cls-1" d="M295,30.73v1.21h-3.2v2.56h2.95v1.21h-2.95v3.09h3.2v1.21h-4.79v-9.27h4.79"/>
      <path class="cls-1" d="M315.8,30.73v1.21h-2.05v8.07h-1.59v-8.07h-2.07v-1.21h5.7"/>
      <path class="cls-1" d="M318.69,30.73v9.27h-1.59v-9.27h1.59"/>
      <path class="cls-1" d="M320.57,35.96v-1.35c.08-2.56.32-4.11,3-4.11s2.92,1.55,3,4.11v1.35c0,2.58-.21,4.27-3,4.27s-3-1.69-3-4.27M322.68,32.09c-.49.49-.48,1.42-.47,1.98v.16s0,2.62,0,2.62c0,.64,0,2.14,1.36,2.14s1.36-1.43,1.36-2.29v-2.42c0-.66,0-1.67-.52-2.19-.22-.22-.5-.33-.84-.33-.37,0-.67.11-.89.33Z"/>
      <path class="cls-1" d="M341.04,35.96v-1.35c.08-2.56.32-4.11,3-4.11,1.53.02,2.37.82,2.49,2.36,0,0,.02.45.03.62h-1.56c0-.09-.02-.22-.02-.22-.05-.6-.12-1.52-.94-1.52-.37,0-.67.11-.89.33-.49.49-.48,1.42-.47,1.98v2.78c0,.64,0,2.14,1.36,2.14.93,0,.96-1.23.97-1.97,0,0,0-.12,0-.2h1.59c0,.08-.03.45-.03.45-.1,2.05-.89,2.97-2.54,2.97-2.79,0-3-1.69-3-4.27"/>
      <path class="cls-1" d="M353,30.73v1.21h-3.2v2.56h2.95v1.21h-2.95v3.09h3.2v1.21h-4.79v-9.27h4.79"/>
      <path class="cls-1" d="M367.44,30.73v1.21h-2.05v8.07h-1.59v-8.07h-2.07v-1.21h5.7"/>
      <path class="cls-1" d="M373.47,30.73v1.21h-3.2v2.56h2.95v1.21h-2.95v3.09h3.2v1.21h-4.79v-9.27h4.79"/>
    </g>
    <g>
      <path class="cls-2" d="M97.65,26.99l.35.37.05.16-.53.12s-1.09.05-1.16.05-.07-.33-.07-.33l.12-.42,1.25.05"/>
      <path class="cls-2" d="M93.19,25.11l1.2.03c.24.19.33.38.4.53.1.23.38.69.54.94-.21.04-.25-.09-.25-.09l-1.04-.79-.91-.14-.09-.21.16-.28"/>
      <g>
        <path class="cls-4" d="M110.39,35.37c0,19.53-24.71,35.37-55.2,35.37S0,54.9,0,35.37,24.71,0,55.2,0s55.2,15.84,55.2,35.37"/>
        <polyline class="cls-2" points="19.03 12.99 17.6 12.99 18.35 12.34 19.55 11.96 20.17 10.14 21.44 9.37 21.6 10.29 20.42 10.94 19.96 12.34 19.03 12.99"/>
        <polyline class="cls-2" points="18.28 10.76 19.24 10.82 19.18 11.38 17.79 12.09 17.08 11.84 17.17 11.38 18.28 10.76"/>
        <path class="cls-2" d="M24.55,7.4c0,.23-.32.42-.72.42s-.72-.19-.72-.42.32-.42.72-.42.72.19.72.42"/>
        <polyline class="cls-2" points="40.51 3.69 40.98 4.11 40.47 4.52 40.51 3.69"/>
        <polyline class="cls-2" points="43.3 3.41 42.29 3.64 41.63 3.5 41.63 2.99 42.14 2.99 43.58 2.3 43.3 3.41"/>
        <polyline class="cls-2" points="51.82 13.73 51.86 11.59 52.54 10.82 52.81 11.34 52.2 13.73 51.82 13.73"/>
        <polyline class="cls-2" points="51.24 16.33 51.14 15.92 50.99 15.77 50.99 15.49 51.36 15.06 51.55 14.72 52.66 15.31 52.35 16.14 52.07 16.08 51.64 16.05 51.24 16.33"/>
        <polyline class="cls-2" points="51.36 16.79 51.76 16.82 51.89 17.87 51.82 18.4 51.51 19.23 51.11 19.23 50.74 19.36 50.34 19.98 50.15 19.95 49.97 19.61 48.98 19.73 48.48 19.76 48.45 19.36 49.94 19.05 50.55 18 50.9 18 51.11 17.47 51.33 17.1 51.36 16.79"/>
        <polyline class="cls-2" points="49.7 20.16 49.68 20.4 49.47 20.44 49.1 20.65 48.87 20.28 49.19 20.23 49.29 20.14 49.7 20.16"/>
        <polyline class="cls-2" points="48.45 20.46 48.54 20.6 48.64 20.91 48.4 21.11 48.15 21.09 47.99 20.6 47.73 20.21 48.43 20.19 48.45 20.46"/>
        <polyline class="cls-2" points="45.9 24.39 45.83 24.85 45.83 24.97 45.67 24.87 45.53 24.85 45.53 24.43 45.62 24.39 45.83 24.29 45.9 24.39"/>
        <polyline class="cls-2" points="45.48 28.59 45.57 28.75 46.08 29.07 46.04 29.24 45.6 29.45 44.76 28.73 44.55 28.66 44.58 28.47 44.92 27.43 45.04 27.77 45.48 28.59"/>
        <polyline class="cls-2" points="46.71 31.9 46.01 32.46 45.81 32.48 45.04 31.93 44.99 31.46 45.18 31.35 45.74 31.35 46.2 31.21 46.69 31.16 46.71 31.9"/>
        <polyline class="cls-2" points="44.3 35.59 44.41 35.43 44.81 35.36 45.48 35.04 45.5 35.18 45.11 35.83 45.11 36.17 45.2 36.22 45.3 36.38 45.92 36.57 45.9 36.73 45.27 37.24 45.27 38.22 44.76 37.59 44.62 37.64 44.48 38.59 44.23 38.54 44.09 38.4 43.83 37.75 43.81 37.38 44.3 36.43 44.3 35.59"/>
        <polyline class="cls-2" points="31.95 32.04 32.18 31.77 32.37 31.74 32.51 32.25 32.65 32.62 32.58 32.86 32.37 33.14 32.21 33.14 31.95 32.62 31.95 32.37 31.91 32.28 31.95 32.04"/>
        <polyline class="cls-2" points="46.69 37.52 47.41 37.68 47.94 37.73 47.76 38.19 47.34 38.17 46.8 38.12 46.73 37.82 46.69 37.52"/>
        <polyline class="cls-2" points="44.76 40.1 44.83 39.84 45.95 39.84 46.06 40.03 46.04 40.54 45.88 40.47 44.76 40.1"/>
        <polyline class="cls-2" points="52.37 55.69 52.58 55.32 52.86 55.25 53.19 55.41 53.46 55.46 53.53 57.01 53.33 57.06 53.14 56.99 52.37 55.69"/>
        <path class="cls-2" d="M58.38,57.36s1.14-.97,1.25-1.76l.23-.05.21.14.21.6-.86,1.23-.81.56h-.23v-.72"/>
        <polyline class="cls-2" points="61.01 51.86 61.35 53.25 61.98 53.81 61.47 54.46 61.31 54.74 61.24 55.5 60.84 55.53 60.8 54.9 60.17 54.23 60.63 53.35 60.7 51.88 61.01 51.86"/>
        <polyline class="cls-2" points="69.45 2.69 69.08 2.71 68.76 2.57 68.34 2.53 67.9 2.71 67.6 2.69 67.02 2.02 67.9 1.88 68.52 1.9 68.55 2.09 68.87 2.36 69.47 2.39 69.45 2.69"/>
        <path class="cls-2" d="M65.6,3.41c.19-.05.72-.16,1,.02.28.19.16.58.16.72s-.37.05-.37.05l-.81-.58.02-.21"/>
        <polyline class="cls-2" points="68.29 3.78 68.52 3.8 69.43 4.15 69.68 4.24 71.12 4.24 71.04 4.71 70.68 4.92 70.19 4.89 69.29 4.31 68.57 4.34 68.27 3.9 68.29 3.78"/>
        <polyline class="cls-2" points="76.92 6.56 77.97 6.94 78.39 7.19 78.15 7.26 77.39 7.26 76.88 6.77 76.71 6.61 76.92 6.56"/>
        <polyline class="cls-2" points="71.73 3.76 71.71 3.42 72.59 3.41 73.95 3.94 75.51 3.99 76.55 4.96 77.57 4.96 79.55 6.22 80.66 6.29 82.26 7.31 78.39 6.5 78.01 6.29 75.25 4.71 74.67 4.87 73.95 4.85 73.44 4.71 73.12 4.59 71.73 3.76"/>
        <path class="cls-2" d="M75.26,12.67c.31.29.46.58.32.8-.04.06-.54.07-.91-.16-.47-.3-.45-.66-.29-.82.15-.16.56-.11.88.18"/>
        <path class="cls-2" d="M72.16,11.06c.24.29.25.69.06.85,0,0-.55.07-.79-.22-.24-.29-.28-.65-.09-.82.2-.16.57-.11.82.18"/>
        <path class="cls-2" d="M90.31,11.34l.09.14.6.97.84.05.14.23-.14.23c-.63.09-.94.11-1.28-.12-.44-.3-.53-.74-.51-1.18.02-.44.07-.28.25-.33"/>
        <polyline class="cls-2" points="84.23 61.44 84.95 61.19 84.95 62.68 84.23 61.44"/>
        <path class="cls-2" d="M25.22,6.21l-1.17-.04c5.06-2.22,10.74-3.92,16.82-4.97l-.99,1.38-3,.59-2.2.03-.68.4-1.79.56-.43.03-1.02.65-.28.03-.77-.28-1.02,1.08-1.02-.19-.74.43-.77.15-.93.12"/>
        <path class="cls-2" d="M70.64,2.02l.68-.48c4.96.97,9.63,2.37,13.89,4.15l-.18.42c2,1.07,3.62,2.6,3.62,2.6l-.98.65-1.72-1.62-1.81-1.16-4.04-1.21-1.07-1.16-1.39-.05-2.18-.84-1.88.13-.58-.97-.98.05-1.27-.12-.12-.39"/>
        <path class="cls-2" d="M80.68,66.25l-2.08,1.16c-6.07,1.83-12.75,2.96-19.79,3.25l2.49-1.79.53-1.09,1.86.32,1.76-1.21,2.41-.35.53.39h3.88l.6.51.79.07.81.09.26.05.05-.28.32-.25.65-.07,1.6-.37s.67-.51.88-.6c.21-.09.58-.26.58-.26h.7l1.28-.86.95-.16,1.25-.39-.05.6-.35.37-1.93.86"/>
        <path class="cls-2" d="M56.32,69.78l-.68.96c-.15,0-.3,0-.45,0-8.28,0-16.13-1.17-23.18-3.26v-.05s.17-.23.17-.23c0,0,.42,0,.6-.09.19-.09.63-.14.63-.14.46.19,1.74.35,1.74.35l1.16-1,.95-.58.95.02,1.49.19,2,.7,1.21-1,2.32-.09,1.65-.56,1.37.79,1.86-.3,3.55-.06,1.23.81.72-.32.6.79,1.02.56-.02.79-.93.63.05,1.11"/>
        <path class="cls-2" d="M16.74,51.5l-2.41-2.72-2.6-5.57-.49-4.08-1.98-1.67.49-3.4-.46-.12-.49-.59-1.33-.19-.22.34-1.42-.28-.93.9-2.04-1.21-.34-1.79-.74-.68,1.3-3.5v-.87l2.69-3.43,2.48-.96,2.54-2.51,2.82.06.34-.37,1.58.03-.31,1.18,1.58,2.01.92-1.02v1.27s.92.26,2.16.54c-1.01,3.81.54,6.23.81,6.61.03,1.36.04,3,.04,4.96,0,.85,0,1.64,0,2.37h-.12l-1.21,1.7.4,3.06.85,1.59c0,.05,0,.11,0,.16l-1.31,2.27.59,1.45.03.04c-.28.74-.61,1.4-.95,1.91-.52.78-1.41,1.72-2.23,2.51"/>
        <path class="cls-2" d="M43.93,22.89c.76-.16,1.42-.32,1.84-.43v.44c-.24.74-.82,1.22-1.19,1.78l-1.02.72c.12-1.8.28-2.35.36-2.51"/>
        <path class="cls-2" d="M43.76,32.35l.63.9-.65.77v.19l.12.49.02.39-.51.81c0-.56,0-1.16,0-1.79s0-1.18,0-1.73l.4-.03"/>
        <path class="cls-2" d="M53.86,46.06l1.26,2.62-.42,2.34-.35,1.69-.9,1.14-1,.16-1.11-.09-.6-1.09-.6-.63-.63.02-1.51-1.44-3.34,1.46-.42-.26-.12-1.51-.56-1-.09-.65.06-.87c1.64.04,2.76.1,2.76.1v-2.1s-.65-.21-1.7-.46l.44-.38.02-.46.84-.74.39-1.28,1.62-.05.53-1.09.56.18h.53l.07.53-.02.67-.07.26-.02.49,1.65,1,.12-.09.12-1.08c.73,1.02,1.57,1.88,2.5,2.59"/>
        <path class="cls-2" d="M48.98,37.83h-.23s-.05-.73-.05-.73l-.44-.37.09-.81.34.15c.07.61.16,1.2.28,1.76"/>
        <path class="cls-2" d="M108.85,39.01l-.68,2.29-4.67,6.16-1.24-.09-1.92,2.17-1.24,1.36-2.44,1.79-.71.06-.43,1.42-2.04.77-1.67,1.79-.31-.56-.37.93-1.27.71-.62.59-.68.8-.59.25-.34-.03-.59.56-.56.59-1.02.09-.59.4.12-.93,1.95-1.45.37-.8.34.22,2.29-1.92.03-1.3s1.98-1.7,2.69-3.13l.53-.71,1.08-1.49v-.46l.5-1c1.05.02,1.72.03,1.72.03.06-2.29,1.55-6.19,1.55-6.19l-1.8-.77s-.6,1.27-1.16,1.93c-.05-.12-.71-1.75-.74-2.38-.03-.65.03-2.57.03-2.57,0,0,.53-1.86.56-2.04.03-.19.03-.68.03-.68l-.28-.9.34-1.92-.71-.12.12-.49-.4-.22-.12.59h0c.03-1.6.12-2.83.12-2.83h-1.83s-.04.19-.11.45l-1.76-1.42-1.08.03-2.57-1.42-1.42-2.2.05-.4c.17-.26.45-.43.93-.43.56,0,1.28.02,2.06.06l.46,2.18,1.05.84h.74l.4-1.3h.99l.31,1.67.03.59,1.89.84.43,2.17.9.43.12-1.14,1.11-.9.56,1.11.65-1.11.84.77.9.03.74,1.14,1.48,1.11,1.3,1.3.96,1.45-.09,1.21,1.14.53.74-.56,1.73,1.05.19.68.99.71"/>
        <path class="cls-2" d="M29.95,14.07l-2.07.34-.62,1.21-.15,1.3.43.68-1.05,1.27.28.59,1.08-.25.46-1.08-.22-.19.03-.25.34-.16.4.03.06-1.52.77-.43.31.28-.06-1.83M30.97,15.89l.77.43.09-.31.06-1.27-.53-.19-.4,1.33ZM34.44,15.46l.27.28.31-.84-.4-.34-.19.9ZM42.42,11l-.65,1.05-.34.06-.12.99.74-.22.43-.77.59-.12v-.9l-.65-.09ZM61.07,6.78l-1.28.02v1.11l-.7-.03-.42.68-1.36-.29-.59.82-.12.62-.12.2.32.51-.97,1.24-.36-1.62.09-.26.84-1.45-.42-.03-.49-.48c-.12.62-.74,1.11-.74,1.11l-1.84.02-.88.53c-.54.46-.84,1.22-.84,1.22v.53l.22.37s-.53,2.38-.59,2.61c-.06.23-.57.9-.7.97-.12.08-.82.09-.82.09-.62,1.7-1.42,2.49-1.42,2.49v1.61c0,.22-.67.39-.67.39l-.03-.7c.06-.22.09-.96.09-.96l-.77-1.14-.31-.54-.84,1.5-.12.19v.15l.15.03,1.07.73-.02.15-.49.63-.02.37.11.02.03.06c-.75.03-3.42.14-6.35.14-3.47,0-6.56-.15-6.56-.15v2.1s1.03.29,2.36.58c.1.21.27.91.4,3.21h-.21l-.09-.08h-.42l-.06.08-2.27,2.03-.49,1.83-.85,1.76-.08.09-.15-.14-.54-2.4-.05-2.68-.71-.7.45-.93-.06-.14-.4-.09h-.05l-1.12-.84h-.48c.04-.39.09-.74.14-1.03,1.33-.28,2.34-.56,2.34-.56v-2.1s-3.09.15-6.56.15c-.75,0-1.49,0-2.18-.02l.93-1.34-1.72-.63.95-1.65,3.55-.35.23-.63-.46-.44.58-1-.84.12-.21.72-.58.07-.63-.65-1,.6-.6,1.35h-.95l-1.14.49-.4,1.46-.32-.02-.28-2.69-.7-.05c-.07,1.39.09,2.41.09,2.41l-.65.3-.14-.02c.14-.46.09-1.18.07-1.44-.02-.26-.19-1.04-.19-1.04l-1.32-.05-.86.88-.28-.05v-.09l-.43.06-.53.84-1.8.71-1.05.12-.15-.19.56-1.05,1.18-.4.06-.8,1.36-.12.81-.15.99-.43.12-1.11,1.02-.53h.62l1.33.09,1.64-1.02.8-1.05.99.09,1.55-1.45.84.96,4.7-1.86.4-.56v-.25h-.4l-.06-.15,2.1-1.7-3.4,1.3-.03.56-1.21.4-1.08.77-.77.15-.12-.12.37-.56.46-.34h-.25l-.22.12-.83-.03-.12-.28,1.3-1.02.9.03,5.57-2.81,1.67.03.94-.89,1.25.49-.07,1.14-.55-.02-.25.22-.02.77.58-.03,1.12-1.47.26.28.74-.32,3.02.14.7-.7.97-.28-.84,1.72.65-.32.19,1.07.79-2.23.93.23.19-.88,4.04-1.11.23.46-.05.6,1.07.05.74.14.74.46h1.49l.37-.14.42.32.79-.14,1.48,1.02,1.3-.05.56-.42c.28.23,2,.93,2.27,1.07l.91.11v.62Z"/>
        <path class="cls-2" d="M84.06,15.31l1.14-.15.31.81.62.34.25-.62.74.22-.19-1.48-1.05.09-1.18-.62-.65,1.42M75.99,12.89l-1.21-1.15-.15-.31-1.24.03-1.79-1.67-1.42-.56-.22-.59-.99.18-.87-.96-.96-.15-.74,1.15-.12-.03-.15-.68-.56.37-.03,1.55-1.11.46-.03-.15.9-1.05v-.68l-.4.06-.71.03-.28.03-.56-.8v-.28l.06-.31-.03-.15-.59-.09-.19.22-.18.19-.16-.06-.43-1.11.34-.37v-.71l-.19-.37-.06-.28.22-.15.09-.25.62.09.68.12.74-.34.53.68,1.02.03.4.37.49-.42,1.83.02.37.18.46.12,1.3,1.02.87.22.15-.34.74-.06-.15-.77h.56l.71.31.43.34.53-.22h.28l1.14.71.06.4s.53,1.15,1.64,2.13h1.16l.33.62.12.25.74-.09,1.21.74,1.39-.22.62.99.46-.06-.62-1.27-.8-.62-1.45-.84-.16-.49.03-.16.22-.03s1.21.81,2.47,1.05l.74.74h.25l.53-.65,1.7,1.24.03.37,1.24-.19,1.54,1.36-.15.8.15,1.02.65-.34.81.87,1.14.71.03.25-.78.21-.06,2.48.22.4.06.65.4.43.02,1.15c-2.75.08-6,.17-6.67.17-1.34,0-2.96-.02-4.52-.03l-.34-.91-.93-.03-1.18-1.67-.4-.59-1.76-2.91-.06-.31.25-.84-.28-.22Z"/>
        <path class="cls-3" d="M35.45,45.38c-1.34.29-2.29.59-2.29.59v2.1s3.09-.15,6.56-.15,6.56.15,6.56.15v-2.1s-.9-.3-2.29-.59c-.09-.03-.63-.66-.63-11.28,0-9.2.4-10.9.57-11.21,1.33-.28,2.35-.56,2.35-.56v-2.1s-3.09.15-6.56.15-6.56-.15-6.56-.15v2.1s1.03.29,2.36.58c.18.37.56,2.19.56,11.19,0,10.61-.53,11.25-.63,11.28"/>
        <path class="cls-3" d="M24.24,20.38c-3.47,0-6.56-.15-6.56-.15v2.1s1.05.3,2.4.59c.24.49.63,2.66.61,11.52-.01,5.42-.01,8.2-.12,9.75-.15,1.92-.87,3.7-1.61,4.81-1.11,1.67-3.99,4.12-3.99,4.12l1.52,2.69s5.69-2.07,8.57-5.1c2.88-3.03,2.98-5.48,3.06-7.43.09-2.1-.36-16.57.33-20.39,1.33-.28,2.34-.56,2.34-.56v-2.1s-3.09.15-6.56.15"/>
        <path class="cls-3" d="M71.16,40.03c-1.21,1.49-5.29,3.49-7.95,2.96-6.62-1.33-8.17-6.7-7.24-11.62.66-3.5,3.99-6.78,7.46-6.84,3.9-.06,4.55,1.76,4.55,1.76l.37,1.79,1.86.25c0-2.85,1.08-6.82,1.08-6.82-.93-.41-3.41-1.77-8.6-1.93-8.96-.27-14.31,7.66-14.11,14.66.3,10.41,7.15,14.51,13.71,14.63,7.8.15,10.12-4.8,10.8-5.97l-1.92-2.88"/>
        <path class="cls-3" d="M85.02,26.21c.04-.92-.06-2.07,1.2-2.07,1.77,0,5.18.23,6.66.47,1.48.23,1.76.74,1.9,1.07.14.32.65,1.11.65,1.11l1.86-1.02c-1.02-1.49-1.3-5.66-1.3-5.66,0,0-9.57.3-10.78.3-3.84,0-10.05-.12-10.05-.12v2.13s1.04.3,2.39.59c.19.38.52,2.31.52,11.18,0,9.44-.24,10.88-.33,11.13-1.44.3-2.59.74-2.59.74v2.1s6.89-.05,11.11-.09c4.32-.05,10.21.06,10.21.06.06-2.29,1.55-6.19,1.55-6.19l-1.8-.77s-.87,1.83-1.48,2.23c-1.4.91-7.09.72-8.49.66-.46-.02-1.3.01-1.32-1.28-.04-2.48,0-7.27,0-7.27,3.13-.03,4.77-.03,5.97.15.81.12.87.4,1.3,2.07h1.8s-.13-1.93-.13-4.1.13-4.1.13-4.1h-1.83s-.43,1.82-.62,1.86c-2.3.38-6.62.09-6.62.09,0,0,.01-3.95.07-5.26"/>
      </g>
    </g>
  </g>
</svg>