<?xml version="1.0" encoding="UTF-8"?><svg id="b" xmlns="http://www.w3.org/2000/svg" width="240" height="222.19" viewBox="0 0 240 222.19"><defs><style>.d{fill:#00a94f;}.e{fill:#fff;}.f{fill:#99877d;}.g{fill:#ed1b2d;}</style></defs><g id="c"><rect class="g" y="196.9" width="240" height="3.46"/><path class="f" d="M95.23,208.4s-5.49,6.14-5.56,6.22c.08.09,5.84,7.22,5.84,7.22h-3.8s-4.36-5.64-4.55-5.89v5.89h-2.98v-13.45h2.98v5.5c.2-.26,4.38-5.5,4.38-5.5h3.51M111.46,212.09c0,2.04,1.31,2.96,3.28,3.71.01,0,.23.08.23.08,1.09.38,2.22.78,2.22,2.01,0,.92-.61,1.87-1.8,1.87-1.24,0-2.17-.98-2.52-1.89l-.04-.12-1.95,1.76.04.05c1.11,1.73,2.69,2.63,4.53,2.63,2.93,0,4.81-1.81,4.81-4.61s-2.02-3.45-3.65-4.09c-1.17-.45-2.08-.81-2.08-1.68s.88-1.44,1.7-1.44,1.53.36,2.09,1.06l.07.09,1.41-1.93-.03-.04c-.94-.94-2.78-1.51-4.03-1.51-2.44,0-4.29,1.74-4.29,4.05M126.31,208.4h-2.89v13.45h2.97v-13.45M140.99,208.4h-3.52s-4.18,5.24-4.38,5.5v-5.5h-2.98v13.45h2.98v-5.89c.2.26,4.55,5.89,4.55,5.89h3.81s-5.77-7.13-5.84-7.22c.06-.08,5.56-6.22,5.56-6.22M172.1,208.04h-2.09v13.81h2.97v-8.95c.19.24,7.54,9.21,7.54,9.21h2.14v-13.71h-2.98v8.86c-.19-.24-7.54-9.22-7.54-9.22M214.27,208.04h-2.09v13.81h2.97v-8.95c.2.24,7.54,9.21,7.54,9.21h2.15v-13.71h-2.97v8.86c-.2-.24-7.55-9.22-7.55-9.22M239.16,208.4h-3.5s-4.19,5.24-4.39,5.5v-5.5h-2.98v13.45h2.98v-5.89c.19.26,4.55,5.89,4.55,5.89h3.8s-5.76-7.13-5.84-7.22c.07-.08,5.56-6.22,5.56-6.22M104.18,208.04l5.54,13.8h-3.16s-1.08-2.7-1.11-2.81h-4.91c-.04.07-1.19,2.81-1.19,2.81h-3.15l5.7-13.8h2.24M102.89,212.19c-.08.28-1.44,4.39-1.5,4.58h3.22c-.06-.15-1.59-4.28-1.72-4.58M140.77,215.08c0-3.95,3.18-7.05,7.23-7.05,1.9,0,3.6.64,4.93,1.85,1.47,1.33,2.31,3.23,2.31,5.21,0,4.04-3.09,7.08-7.22,7.08-1.91,0-3.61-.63-4.95-1.85-1.46-1.32-2.3-3.23-2.3-5.25M145.49,218.45c.53.47,1.38,1.04,2.51,1.04,2.31,0,4.17-2.47,4.17-4.51,0-1.18-.54-2.37-1.44-3.18-.76-.69-1.7-1.05-2.71-1.05-2.49,0-4.17,2.2-4.17,4.25,0,1.19.65,2.54,1.64,3.45M161.71,208.4c1.67,0,2.94.39,3.79,1.15.56.52.92,1.2,1.08,2.04.03.28.06.58.06.9,0,1.56-.92,3.35-2.91,3.72.1.15,4.09,5.64,4.09,5.64h-3.59s-3.23-4.94-3.43-5.25v5.25h-2.98v-13.45h.07M160.81,210.65v3.86h.27c1.81,0,2.58-.58,2.58-1.98,0-.17-.01-.33-.03-.48-.07-.38-.21-.66-.45-.88-.39-.36-1.02-.52-2.04-.52h-.32ZM189.91,208.4c1.57,0,2.68.33,3.42.99.48.45.81,1.04.93,1.8.04.28.07.59.07.91,0,.87-.33,1.97-1.2,2.54,1.38.3,2.14,1.43,2.35,2.64.05.25.06.49.06.73,0,2.39-1.75,3.84-4.68,3.84h-4.51v-13.45h.06M189.3,216.05c.01.11.01,3.41.01,3.56h.5c1.45,0,2.75-.14,2.75-1.84,0-.14-.01-.28-.04-.4-.06-.34-.2-.59-.41-.8-.53-.48-1.44-.52-2.42-.52h-.4ZM189.31,210.62c-.01.11,0,3.16,0,3.31h.25c1.47,0,1.99-.44,1.99-1.68,0-.15,0-.3-.04-.44-.05-.33-.19-.59-.4-.79-.3-.27-.79-.41-1.51-.41h-.29ZM204.83,208.04l5.55,13.8h-3.18s-1.07-2.7-1.11-2.81h-4.9c-.03.07-1.2,2.81-1.2,2.81h-3.14l5.69-13.8h2.23M203.55,212.19c-.09.28-1.45,4.39-1.5,4.58h3.21c-.06-.15-1.59-4.28-1.71-4.58M46.58,208.91h-4.49l.02,1.5h4.59l-.02-1.5M49.7,215.14h-1.82l.05,4.16s.02,1,.02,1h0c-.02.44.14.82.45,1.1.55.5,1.39.5,1.42.5h2.09l-.02-1.6h-1.38c-.1,0-.25-.02-.37-.12-.12-.1-.18-.27-.18-.48v-.44s-.06-4.12-.06-4.12M44.17,212.22h-1.82l-.07,7.08s.02,1,.02,1v-.02c-.02.45.14.84.46,1.11.54.5,1.38.51,1.41.51h2.63l-.02-1.6h-1.91c-.11,0-.26-.03-.39-.12-.11-.1-.17-.27-.17-.48v-.44s.05-7.05.05-7.05M54.91,208.3l.06,5.73c.01.8-.47,1.61-1.56,1.61h-5.52l-.08-7.34h6.9M49.85,209.79c0,.23.04,4.02.05,4.34h2c.88,0,1.03,0,1.03-1.07,0,0-.02-2.96-.03-3.27h-3.05ZM53.94,211.22h-5.19l.02,1.51h5.39s-.02-1.51-.02-1.51M52.74,216.16h-1.78l1.37,3.42.48,1.22h0c.29.76.61,1.15,1.57,1.15h1.39l-.02-1.47-.39.02c-.53,0-.78-.1-1.18-1.08l-1.36-3.25M41.15,211.29l-.03,1.33h5.61v-1.38s-5.58-.02-5.58-.02M46.73,214.14h-6.98s.02,1.54.02,1.54h6.99l-.02-1.54M54.56,216.14s-.36,1.29-.36,1.31c-.31.63-.89.48-.92.48l-.1-.04.02,1.44h1.25c1.03,0,1.11-.77,1.11-.78,0,.01.61-2.35.61-2.35l.03-.1h-1.61M44.15,208.13h-1.88l-1.56,3.05c-.18.29-.8.27-.8.27h-.07l.03,1.44h1.19c.77-.01.96-.62.97-.65-.01,0,2.21-3.99,2.21-3.99l.07-.12M72.98,208.34h-6.74l.05,1.92h7.14l-.05-1.92M64.07,208.17h-1.73l-1.36,3.05c-.13.24-.62.23-.62.23h-.16s.04,1.55.04,1.55h1.18c.76-.01.92-.65.93-.68,0,.02,1.91-3.92,1.91-3.92l.11-.23M63.19,212.28l-.95,1.92c-.26.5-.49.7-.79.69-.02,0-.84.02-.84.02l.06,1.62h1.17c1.37-.02,1.89-1.17,1.91-1.22,0,.01,1.41-2.87,1.41-2.87l.1-.22h-2.03M63.11,215.05h-1.91l.12,6.85h2.29l-.1-6.85M72.65,213.19h-1.91l.17,5.89v.26c.02.63-.02.66-.15.67l-4.31-.03.04,1.94,4.99.03c.42-.01,1.8-.14,1.75-1.65l-.02-.96-.16-6.15M73.31,212.28h-7.28l.06,1.9h7.68l-.06-1.9M35.39,208.42h-14.03l.04,1.57,14.28.05v-1.62M35.48,212.73h-14.02l.03,1.57h14.23l-.03-1.57M34.77,210.74h-12.6v1.25h12.78v-1.25M29.48,207.51h-1.98l-.03,6.64h2.26l-.05-6.64M29.5,214.94h-1.99l.08,4.28.02.67c0,.45-.03.45-.37.47h-.87v.13l.03,1.44h1.88c.57,0,1.55-.22,1.53-1.62v-1.04s-.1-4.33-.1-4.33M22.5,220.89s-.89,0-1.01,0c0,.11.01.79.01.93h1.11c1.53,0,1.56-.04,2.5-1.17,0,0,.14-.17.14-.17,0,0,.66-.86.66-.86,0,0,.06-.06.11-.12h-1.86c-.03.06-.39.6-.39.6-.37.49-.86.79-1.28.8M24.09,213.9s-.28.33-.28.33c0,0-.29.36-.29.37l-.04.06c-.32.37-.48.56-1.21.56,0,0-.64,0-.77,0,0,.11.01.79.01.93h1.43c1.06.08,1.21.04,2.29-1.25l.67-.85s.05-.07.11-.13c-.52,0-1.91,0-1.92-.03M32.6,214.23s-.4-.33-.41-.33c0,.02-1.38.03-1.9.03.08.06.15.13.15.13l1,.85c1.57,1.29,1.73,1.33,2.77,1.25h1.5c0-.14.02-.82-.02-.93-.13,0-1.18,0-1.18,0-.73,0-.98-.2-1.43-.56l-.07-.06s-.44-.37-.44-.37M21.59,217.05s.28.37.27.37c.85.99,1.08,1.2,2.67,1.21,0,0,1.4,0,1.54,0,0-.1-.02-.91-.02-1.06h-1c-.66-.01-1.2-.05-1.6-.51,0,0-.07-.08-.11-.13-.1,0-1.61-.02-1.88-.02.07.07.13.14.13.14M33.02,219.52c-.11,0-1.62,0-1.89,0,.07.06.12.14.12.14l.7.85.15.18c.97,1.11,1.01,1.15,2.51,1.16,0,0,.99,0,1.14,0,0-.1-.02-.79-.03-.93-.23,0-.98-.01-.98-.01-.42,0-.94-.31-1.33-.81,0,0-.34-.5-.4-.58M33.76,217.07c-.34.4-.79.48-1.55.49h-1.02c0,.11.02.92.02,1.06.28,0,1.52,0,1.52,0,1.59,0,1.86-.24,2.64-1.22l.26-.37s.06-.07.11-.13c-.5,0-1.82.01-1.82-.01-.01,0-.15.18-.15.18M17.08,214H.81v1.55h16.52v-1.55M15.78,208.35H2.03v1.55h14.02l-.02-1.55M12.75,208.72h-1.75l-.02,13.24,2.13.04v-13.24M5.36,209.19v7.87c0,1.83-.63,2.37-.63,2.37l-1.21,1.12,1.56,1.43s.33-.3,1.35-1.24c1.03-.94,1.1-2.71,1.1-2.71v-8.84M11.42,172.5c-3.35-1.19-5.21.08-5.91.73,1.42-.04,5.37.03,7.57,1.57,1.83,1.3,2.19,2.7,2.19,4.55v4.96c0,1.35-.08,2.54-1.07,3.41-.87.74-1.88.74-2.95.74H2.29v-3.64h1.95v-8.22H.87v-2.28l.02-.03c.04-.14,1-3.47,4.05-5.02,1.95-.98,4.29-1.01,6.97-.09,2.84.97,3.87.42,3.88.41l.26-.15.81,3.34-.12.08c-.06.04-1.5,1.03-5.32-.36M11.53,180.17c0-1,0-2.02-1.21-2.78-.72-.46-1.81-.59-2.26-.63v8.07h2.03c.55,0,.92-.07,1.11-.24.29-.24.34-.67.34-1.1v-3.31M54.52,174.77c0-4.44-3.18-6.43-6.34-6.43-4.7,0-6.75,3.82-6.77,3.86l-.09.16,3.03,2.05.11-.23s1.08-2.12,3.42-2.21c.75-.03,1.45.24,1.98.73.59.55.91,1.36.91,2.31v13.44h3.75M90.78,174.77c0-4.44-3.19-6.43-6.35-6.43-4.7,0-6.74,3.82-6.77,3.86l-.08.16,3.02,2.05.11-.23s1.07-2.12,3.42-2.21c.75-.03,1.46.24,1.98.73.59.55.9,1.36.9,2.31v13.44h3.76M102.75,185.57c-1.85,0-1.85-2.71,0-2.71s1.86,2.71,0,2.71M97.13,173.79c.44-.73,1.93-2.53,5.86-1.43,1.72.48,4.13.83,5.85-.22l.15-.09-.06-.16-1.1-2.82-.09-.24-.22.12s-1.47.77-4.05.03c-2.58-.73-4.84-.58-6.71.44-2.94,1.59-3.83,4.74-3.87,4.87v2.84h9.21c.54,0,.91.08,1.11.25.13.1.28.37.28,1.1v1.5c-.16,0-.41-.02-.74-.02-2.59,0-4.53,1.89-4.53,4.4s1.99,4.34,4.53,4.34,4.54-1.87,4.54-4.34v-6.42c0-1.35-.08-2.55-1.08-3.41-.87-.73-1.88-.73-2.96-.73h-6.13M179.94,185.57c-1.85,0-1.85-2.71,0-2.71s1.86,2.71,0,2.71M174.32,173.79c.43-.73,1.94-2.53,5.86-1.43,1.72.48,4.12.83,5.85-.22l.15-.09-1.26-3.21-.22.12s-1.47.77-4.05.03c-2.59-.73-4.84-.58-6.7.44-2.93,1.59-3.82,4.74-3.86,4.87v.03s0,2.81,0,2.81h9.2c.55,0,.92.08,1.11.25.13.1.28.37.28,1.1v1.5c-.17,0-.41-.02-.74-.02-2.59,0-4.53,1.89-4.53,4.4s1.99,4.34,4.53,4.34,4.53-1.87,4.53-4.34v-6.42c0-1.35-.07-2.55-1.07-3.41-.88-.73-1.89-.73-2.97-.73h-6.12M119.71,168.35c-5.25-.05-8.41,3.24-8.44,3.28l-.06.06v3.25l.15.05c1.19.34,2.47.73,3.03.93-.43.43-1.22,1.47-1.22,3.44v9.11h3.8v-8.58c0-.52,0-1.39.55-2.16.55-.76,1.79-1.13,1.8-1.13l.15-.05v-2.48l-.14-.06c-.06-.02-1.42-.54-2.18-.74-.65-.16-1.08-.29-1.34-.38.57-.32,1.88-.9,3.89-.9.05,0,4.91.11,4.91,4.11v12.37h3.8v-13.15c0-4.18-3.42-6.91-8.71-6.97M136.98,185.57c-1.86,0-1.86-2.71,0-2.71s1.86,2.71,0,2.71M147.17,170.76c2.19-1.98,2.47-4.5,2.48-4.61l.02-.23h-4.36v.2s-.08,1.25-1.45,2.48c-.34.3-.55.41-.64.45-.37-.16-1.74-.71-3.83-.71-6.44,0-8.81,4.98-8.83,5.04l-.08.19,3.4,1.48.09-.19c.05-.12,1.36-2.89,5.42-2.89,1.21,0,4.65.76,4.65,4.11v1.02c-.79-.91-2.73-2.69-5.8-2.69-3.81,0-5.79,2.74-5.79,5.46v4.48c0,2.48,1.96,4.34,4.53,4.34s4.54-1.87,4.54-4.34-1.91-4.29-4.54-4.29c-.37,0-.65.02-.83.05v-.24c0-1.04.96-1.92,2.09-1.92,3.46,0,5.65,3.72,5.65,4.65v5.85h3.81v-12.9c0-1.33-.32-2.59-.89-3.56-.14-.28-.29-.51-.39-.66.17-.11.42-.3.75-.58M148.78,165.15l-.29-.06s-4.47-.89-9.35-.89c-4.62,0-7.53.47-7.55.47l-.27.04v-2.82c.02-.06,1.94-6.42,8.7-6.36,7.16.1,8.74,6.31,8.75,6.37v.03s.01.03.01.03M144.76,161.29c-.55-.74-1.96-2.14-4.75-2.22-2.5-.04-3.82,1.2-4.36,1.88.66-.09,1.89-.22,3.76-.22,2.29,0,4.39.36,5.35.56M159.37,168.35c-5.26-.05-8.42,3.24-8.44,3.28l-.06.06v3.25l.15.05c1.18.34,2.46.73,3.03.93-.44.43-1.23,1.47-1.23,3.44v9.11h3.81v-8.58c0-.52,0-1.39.55-2.16.56-.76,1.78-1.13,1.8-1.13l.15-.05v-2.48l-.14-.06c-.06-.02-1.43-.54-2.18-.74-.64-.16-1.07-.29-1.34-.38.57-.32,1.88-.9,3.9-.9.04,0,4.9.11,4.9,4.11v12.37h3.8v-13.15c0-4.18-3.42-6.91-8.7-6.97M203.93,171.52c1.81,0,1.81,2.67,0,2.67s-1.81-2.67,0-2.67M219.06,172.74c0-1.38-.08-2.51-1.08-3.37-.92-.78-2-.78-3.15-.78h-1.12l-4.83,6.6-.46.81v-3.31c0-2.48-1.93-4.34-4.48-4.34s-4.59,1.91-4.59,4.34,1.96,4.44,4.59,4.44c.32,0,.56-.01.73-.02v11.35h3.75v-6.32l6.85-9.59v15.91h3.8v-15.72M227.82,171.52c1.8,0,1.8,2.67,0,2.67s-1.82-2.67,0-2.67M235.58,168.59v14.89c0,.43-.04.87-.32,1.1-.26.21-.71.24-1.06.24h-5.08c-1.71,0-2.04-.24-2.04-1.54,0-1.69,1.49-1.83,3.15-1.83h2.12v-3.31l-.25.02s-1.53.13-2.93-.14c-1.1-.23-1.52-.7-1.69-1,.1,0,.2,0,.34,0,2.61,0,4.59-1.87,4.59-4.34s-2.02-4.34-4.59-4.34-5.09,1.75-5.09,5.61c.05,3.61,1.79,5.06,2.58,5.54-.66.42-1.98,1.5-1.98,3.74v1.07c0,1.35.07,2.55,1.07,3.41.86.75,1.88.74,2.96.74h7.99c1.07,0,2.09,0,2.95-.74,1-.87,1.08-2.06,1.08-3.41v-15.72h-3.81ZM38.05,182.53c1.98,0,1.98,2.92,0,2.92s-1.97-2.92,0-2.92M42.73,183.96c-.14-4.58-4.56-5.48-5.55-5.62v-9.74h-3.71v10.22c-.38.17-1.51.71-2.95,1.88-1.46,1.22-2.34,2.07-2.79,2.55l.07-1.69v-8.85c0-2.48-1.91-4.34-4.44-4.34s-4.52,1.91-4.52,4.34,1.94,4.44,4.52,4.44c.32,0,.56-.01.73-.02v11.35h3.49c.13,0,.17-.04.62-.56.58-.65,1.65-1.88,3.19-3.29,1.12-.99,1.74-1.46,2.07-1.68v1.82c0,2.73,2.17,3.95,4.33,3.95,1.31,0,2.7-.58,3.63-1.5.87-.87,1.31-1.98,1.3-3.24M23.21,171.52c1.81,0,1.81,2.67,0,2.67s-1.8-2.67,0-2.67M66.7,176.53c1.86,0,1.86,2.72,0,2.72s-1.86-2.72,0-2.72M75.8,176.87c0-2.39-.9-4.57-2.53-6.13-1.69-1.62-3.98-2.47-6.63-2.44-4.15,0-8.76,2.73-9.14,7.79-.2,2.59.58,4.61,1.33,6.58.61,1.59,1.18,3.1,1.18,4.8v.99h3.81v-.22c0-.64.08-1.84.54-3.99.25-1.28.56-2.25.71-2.66.33.13.93.36,1.63.36,1.6,0,4.13-1.09,4.13-4.01s-2.41-4.05-4.13-4.05c-2.11,0-3.73,1.42-4.33,3.8,0,0-.43,1.7-.66,2.63-.25-.61-.61-1.73-.61-3.21,0-2.67,1.71-5.38,5.55-5.38,3.05,0,5.35,2.23,5.35,5.18v11.54h3.8v-11.59M194.93,185.57c-1.84,0-1.84-2.71,0-2.71s1.87,2.71,0,2.71M199.53,184.36c0-2.51-1.98-4.4-4.6-4.4-.3,0-.55.03-.72.05v-26.56h-3.41l-3.54,5.92-1.66-4.76s-.17-.44-.44-.72c-.31-.3-.62-.45-.92-.45h-1.78v4c0,.11.08.19.23.23.11.03.18.07.29.37.1.27.22.49.26.55l2.2,6.88h2.25l2.93-4.98-.21,4.52v19.33c0,2.48,1.95,4.34,4.52,4.34s4.6-1.91,4.6-4.34"/><path class="e" d="M174.49,64.84c0-30.09-24.41-54.49-54.5-54.49s-54.49,24.4-54.49,54.49,24.41,54.51,54.49,54.51,54.5-24.41,54.5-54.51Z"/><path class="g" d="M120,0C84.18,0,55.15,29.02,55.15,64.84s29.02,64.85,64.84,64.85,64.85-29.03,64.85-64.85S155.81,0,120,0ZM65.5,64.84c0-30.09,24.41-54.49,54.49-54.49s54.5,24.4,54.5,54.49-24.41,54.51-54.5,54.51-54.49-24.41-54.49-54.51Z"/><path class="f" d="M150.57,96.2c2.84,1.44,5.76,2.92,10.49,2.92.45,0,.91-.02,1.33-.05-.44.57-.93,1.14-1.42,1.68-5.06,0-8.16-1.58-11.15-3.1-2.73-1.37-5.32-2.69-9.33-2.69-3.53,0-6.35,1.3-9.33,2.66-3.32,1.55-6.74,3.12-11.46,3.12-4.2,0-7.4-1.48-10.48-2.92-3.13-1.46-6.11-2.83-10.15-2.83-3.53,0-6.35,1.29-9.36,2.62-3.16,1.42-6.44,2.9-10.79,3.05-.48-.54-.94-1.09-1.38-1.63.22,0,.44,0,.68,0,4.35,0,7.64-1.48,10.81-2.91,3.02-1.34,6.14-2.77,10.03-2.77,4.4,0,7.67,1.53,10.84,2.99,3.06,1.42,5.96,2.76,9.78,2.76,4.34,0,7.62-1.51,10.77-2.96,3.01-1.38,6.13-2.82,10.02-2.82,4.4,0,7.28,1.46,10.07,2.88M140.5,96.42c-3.89,0-7.01,1.43-10.02,2.81-3.15,1.46-6.42,2.96-10.77,2.96-3.83,0-6.72-1.34-9.78-2.75-3.17-1.48-6.45-2.99-10.84-2.99-3.89,0-7,1.41-10.03,2.77-2.69,1.2-5.47,2.45-8.88,2.8.45.49.92.98,1.4,1.47,3.11-.51,5.65-1.66,8.15-2.79,3.01-1.35,5.83-2.63,9.36-2.63,4.04,0,7.01,1.38,10.15,2.84,3.08,1.43,6.28,2.92,10.48,2.92,4.72,0,8.14-1.59,11.46-3.11,2.98-1.38,5.8-2.67,9.33-2.67,4.01,0,6.59,1.31,9.33,2.69,2.4,1.22,4.89,2.47,8.41,2.93.5-.5.98-1,1.46-1.51-3.95-.26-6.59-1.59-9.13-2.88-2.79-1.41-5.67-2.87-10.07-2.87M140.5,99.52c-3.89,0-7.01,1.43-10.02,2.82-3.15,1.45-6.42,2.96-10.77,2.96-3.83,0-6.72-1.34-9.78-2.76-3.17-1.46-6.45-2.98-10.84-2.98-3.89,0-7,1.4-10.03,2.77-1.96.89-3.97,1.78-6.25,2.35.48.44.94.87,1.43,1.3,1.97-.59,3.74-1.38,5.49-2.17,3.01-1.34,5.83-2.62,9.36-2.62,4.04,0,7.01,1.38,10.15,2.83,3.08,1.43,6.28,2.91,10.48,2.91,4.72,0,8.14-1.57,11.46-3.1,2.98-1.37,5.8-2.67,9.33-2.67,4.01,0,6.59,1.31,9.33,2.69,1.74.88,3.49,1.77,5.65,2.37.5-.43.99-.87,1.48-1.32-2.51-.55-4.47-1.54-6.38-2.5-2.79-1.4-5.67-2.87-10.07-2.87M140.5,102.62c-3.89,0-7.01,1.43-10.02,2.82-3.15,1.45-6.42,2.94-10.77,2.94-3.83,0-6.72-1.33-9.78-2.75-3.17-1.47-6.45-2.99-10.84-2.99-3.89,0-7,1.41-10.03,2.77-1.19.53-2.39,1.08-3.65,1.54.49.41.99.8,1.49,1.18.97-.39,1.92-.8,2.83-1.23,3.01-1.34,5.83-2.62,9.36-2.62,4.04,0,7.01,1.37,10.15,2.84,3.08,1.43,6.28,2.92,10.48,2.92,4.72,0,8.14-1.59,11.46-3.11,2.98-1.38,5.8-2.67,9.33-2.67,4.01,0,6.59,1.31,9.33,2.7.96.48,1.92.97,2.96,1.42.51-.38,1.01-.77,1.51-1.17-1.35-.51-2.55-1.12-3.73-1.71-2.79-1.41-5.67-2.87-10.07-2.87M140.5,105.72c-3.89,0-7.01,1.42-10.02,2.81-3.15,1.46-6.42,2.97-10.77,2.97-3.83,0-6.72-1.35-9.78-2.77-3.17-1.47-6.45-2.99-10.84-2.99-3.89,0-7,1.4-10.03,2.76-.34.16-.69.32-1.04.47.51.37,1.03.74,1.55,1.1.07-.02.11-.05.16-.08,3.01-1.35,5.83-2.62,9.36-2.62,4.04,0,7.01,1.37,10.15,2.83,3.08,1.44,6.28,2.91,10.48,2.91,4.72,0,8.14-1.58,11.46-3.1,2.98-1.38,5.8-2.67,9.33-2.67,4.01,0,6.59,1.3,9.33,2.7.13.06.24.12.37.18.5-.34,1.01-.7,1.52-1.06-.39-.19-.77-.39-1.15-.58-2.79-1.4-5.67-2.86-10.07-2.86M130.48,111.62c-3.15,1.46-6.42,2.96-10.77,2.96-3.83,0-6.72-1.34-9.78-2.76-3.17-1.47-6.45-2.98-10.84-2.98-3.16,0-5.82.94-8.33,2.01.58.36,1.14.71,1.72,1.05,2.07-.82,4.17-1.43,6.6-1.43,4.04,0,7.01,1.38,10.15,2.83,3.08,1.45,6.28,2.92,10.48,2.92,4.72,0,8.14-1.58,11.46-3.11,2.98-1.37,5.8-2.67,9.33-2.67,2.81,0,4.94.65,6.9,1.52.56-.33,1.13-.68,1.68-1.02-2.35-1.14-4.95-2.14-8.58-2.14-3.89,0-7.01,1.43-10.02,2.82"/><path class="d" d="M150.37,48.13v13.49c0,3.78-.28,8.15-4.67,11.36-5.25,3.82-13.26,8.36-16.73,11.98-2.06,2.15-3.07,4.86-3.05,6.62v5.13h-2.61v-19.72c0-2.68.33-6.16,2.22-8.52,1.89-2.38,18.67-12.63,21.21-14.68,1.12-.9,3.19-3.03,3.59-5.05M123.32,67.27c1.86-2.33,19.15-12.89,21.64-14.92,2.5-2.01,5.38-5.12,5.38-8.99v-22.09c0,3.1-1.73,5.49-3.98,8.42-2.56,3.33-14.19,9.63-19.94,13.67-5.74,4.03-7.75,8.07-7.75,13.04v40.32h2.59v-21.07c0-2.64.2-6.05,2.06-8.38M110.18,44.43c-5.28-4.03-16.04-12.74-17.29-14.44-1.23-1.72-4.03-4.81-4.03-8.54v20.5c0,2.94,1.4,8.23,6.54,11.96,5.12,3.72,12.31,9.16,14.47,11.34,2.19,2.17,4.18,6.08,4.18,11.68v19.79h2.57v-39.44c0-6.37-1.16-8.8-6.44-12.84"/></g></svg>