<?xml version="1.0" encoding="UTF-8"?>
<svg id="Layer_1" data-name="Layer 1" xmlns="http://www.w3.org/2000/svg" viewBox="0 0 200 100">
  <defs>
    <style>
      .cls-1 {
        fill: none;
      }

      .cls-2 {
        fill: #00aeef;
      }

      .cls-3 {
        fill: #ec1c24;
      }

      .cls-4 {
        fill: #1b1464;
      }
    </style>
  </defs>
  <g id="Group_49748" data-name="Group 49748">
    <rect id="Rectangle_31453" data-name="Rectangle 31453" class="cls-1" width="200" height="100"/>
    <g>
      <g>
        <path class="cls-2" d="m41.87,15.4c-3.07,7.4-4.83,11.83-4.24,18.14.63,6.73,5.2,12.12,9.4,16.62,3.38,3.63,5.43,5.93,6.37,10.11.65,2.89,1.4,9.02-2.94,14.91-5.2,7.05-13.59,7.3-13.59,7.3v2.12s10-.4,16.81-6.58c4.7-4.27,6.38-7.99,7.6-13.74,1.04-4.89-.21-11.86-3.26-17.21-1.71-3.01-3.59-5.51-5.39-7.6-3.55-4.13-6.09-6.89-8.35-10.19-2.09-3.05-3.38-5.64-3.38-8.31s1.04-5.35,1.04-5.35l-.06-.22Z"/>
        <path class="cls-2" d="m29.76,15.4c3.07,7.4,4.83,11.83,4.24,18.14-.63,6.73-5.2,12.12-9.4,16.62-3.38,3.63-5.43,5.93-6.37,10.11-.65,2.89-1.4,9.02,2.94,14.91,5.2,7.05,13.59,7.3,13.59,7.3v2.12s-10-.4-16.81-6.58c-4.7-4.27-6.37-7.99-7.6-13.74-1.05-4.89.21-11.86,3.26-17.21,1.71-3.01,3.59-5.51,5.39-7.6,3.55-4.13,6.09-6.89,8.35-10.19,2.08-3.05,3.38-5.64,3.38-8.31s-1.04-5.35-1.04-5.35l.06-.22Z"/>
        <path class="cls-4" d="m47.24,52.89c-3-2.88-6.7-7.41-8.16-9.8-2.61-4.28-3.27-8.01-3.27-8.01,0,0-.7,3.74-3.32,8.01-2.47,4.01-6.83,8.52-8.27,9.95-2.97,2.97-4.8,7.06-4.8,11.59,0,9.05,7.34,16.38,16.39,16.38s16.39-7.33,16.39-16.38c0-4.61-1.88-8.79-4.96-11.75Z"/>
        <path class="cls-3" d="m35.82,78.03c-7.39,0-13.39-6-13.39-13.39s6-13.39,13.39-13.39,13.39,5.99,13.39,13.39-6,13.39-13.39,13.39Z"/>
      </g>
      <g>
        <path class="cls-4" d="m129.46,55.41s0,0,0,0h0c.92-7.55-2.18-11.51-6.98-13.57,0,0,0,0,0,0-.17-.07-.34-.14-.52-.21,0,0,0,0,0,0-.17-.07-.35-.13-.53-.2,0,0,0,0,0,0-.18-.06-.36-.12-.54-.18,0,0,0,0,0,0-.18-.06-.36-.12-.55-.17,0,0,0,0,0,0,0,0,0,0,0,0-4.28-1.27-9.47-1.44-14.28-1.44-13.08,0-29.76,1.25-36.87,22.49-4.15,12.4-.47,17.98,5.91,20.49,0,0,0,0,0,0,.17.07.35.13.53.2,0,0,0,0,0,0,.18.06.36.12.54.18,0,0,0,0,0,0,.18.06.36.12.55.17,0,0,0,0,0,0,0,0,0,0,0,0,4.28,1.27,9.47,1.44,14.28,1.44,13.08,0,29.76-1.25,36.87-22.49.84-2.5,1.35-4.73,1.59-6.7Zm-21.68,11.12c-1.46,2.76-4.11,5.97-7.72,8.61-1.75.79-3.82,1.24-6.31,1.24-10.32,0-8.29-7.91-6.16-14.26.48-1.43,1.01-2.94,1.67-4.41,1.46-2.76,4.11-5.97,7.72-8.61,1.75-.79,3.82-1.24,6.31-1.24,10.32,0,8.29,7.91,6.16,14.26-.48,1.43-1.01,2.94-1.67,4.41Z"/>
        <g>
          <path class="cls-2" d="m89.26,57.7c3.37-6.37,13.09-15.16,26.42-13.74,13.62,1.45,13.78,10.84,13.78,11.45,1.06-8.63-3.15-12.56-9.13-14.34-1.74-.4-3.79-.63-6.21-.63-19.85,0-24.85,17.27-24.85,17.27Z"/>
          <path class="cls-2" d="m107.79,66.52c-3.37,6.37-13.09,15.16-26.42,13.74-13.62-1.45-13.78-10.84-13.78-11.45-1.06,8.63,3.15,12.56,9.13,14.34,1.74.4,3.79.63,6.21.63,19.85,0,24.85-17.27,24.85-17.27Z"/>
        </g>
      </g>
      <g>
        <path class="cls-4" d="m166.69,68.7c27.09-6.97,23.11-21.52,23.11-21.52h0s0,0,0,0h0s0,0,0,0c0,0,0,0,0,0,0,0,0,0,0,0-1.36-6.6-10.62-7.48-16.84-7.48s-15.97,2.89-18.97,3.86c.71-2.1,4.49-3.93,4.49-3.93h-11.89c-2.59,0-5.1,2.55-5.76,4.44l-7.76,23.18c-1.89,0-3.79-.07-5.69-.2h0s0,0,0,0h0s0,0,0,0h0c1,.74,2.63,1.62,4.95,2.41l-5.07,15.15h13.41c1.75,0,4.1-1.59,4.87-3.88l3.13-9.36s.01,0,.01,0l18.31,13.24h21.49s-19.11-14.11-21.8-15.9h0Zm-8.99-24.33s1.04-.14,1.78-.2c3.87-.28,14.52-.02,13.6,7.7-.73,6.11-11.26,10.97-22.4,13.49l7.02-20.99Z"/>
        <path class="cls-2" d="m189.79,47.18s4.21,15.36-25.4,22.08c-22.33,4.84-33.5.36-37.01-2.21,0,0,10.4,3.98,34.01-.61,23.61-4.6,28.35-15.73,28.41-19.25Z"/>
      </g>
    </g>
  </g>
</svg>