<svg xmlns="http://www.w3.org/2000/svg" xmlns:xlink="http://www.w3.org/1999/xlink" viewBox="0 0 213.68 99.79"><defs><style>.cls-1{fill:#1c68b3;}.cls-2{fill:url(#linear-gradient);}.cls-3{fill:url(#linear-gradient-2);}.cls-4{fill:url(#linear-gradient-3);}.cls-5{fill:url(#linear-gradient-4);}.cls-6{fill:url(#linear-gradient-5);}.cls-7{fill:url(#linear-gradient-6);}.cls-8{fill:url(#linear-gradient-7);}</style><linearGradient id="linear-gradient" x1="-11799.28" y1="949.41" x2="-11799.28" y2="907.87" gradientTransform="translate(1022.41 11824.85) rotate(90)" gradientUnits="userSpaceOnUse"><stop offset="0" stop-color="#57c5ce"/><stop offset="1" stop-color="#1d68b3"/></linearGradient><linearGradient id="linear-gradient-2" x1="-10891.38" y1="12842.06" x2="-10891.38" y2="12796.13" gradientTransform="translate(-10802.44 12847.25) rotate(180)" xlink:href="#linear-gradient"/><linearGradient id="linear-gradient-3" x1="-10898.12" y1="12842.06" x2="-10898.12" y2="12796.13" gradientTransform="translate(-10802.44 12847.25) rotate(180)" xlink:href="#linear-gradient"/><linearGradient id="linear-gradient-4" x1="999.59" y1="11934.68" x2="999.59" y2="11893.15" gradientTransform="translate(-11824.85 1022.41) rotate(-90)" xlink:href="#linear-gradient"/><linearGradient id="linear-gradient-5" x1="993.43" y1="11934.68" x2="993.43" y2="11893.15" gradientTransform="translate(-11824.85 1022.41) rotate(-90)" xlink:href="#linear-gradient"/><linearGradient id="linear-gradient-6" x1="91.42" y1="45.93" x2="91.42" y2="0" gradientTransform="matrix(1, 0, 0, 1, 0, 0)" xlink:href="#linear-gradient"/><linearGradient id="linear-gradient-7" x1="91.42" y1="45.93" x2="91.42" y2="0" gradientTransform="matrix(1, 0, 0, 1, 0, 0)" xlink:href="#linear-gradient"/></defs><g id="Layer_2" data-name="Layer 2"><g id="Layer_2-2" data-name="Layer 2"><path class="cls-1" d="M149,96.49V98a.23.23,0,0,1-.24.24h-.41a.24.24,0,0,1-.25-.24v-4.8a.25.25,0,0,1,.25-.24h1.74a2,2,0,0,1,1.38.46A1.58,1.58,0,0,1,152,94.6a1.52,1.52,0,0,1-.5,1.21,2.06,2.06,0,0,1-1.4.43h-.83A.25.25,0,0,0,149,96.49Zm0-1.23a.24.24,0,0,0,.25.24h.84a1,1,0,0,0,.73-.23.84.84,0,0,0,.26-.66,1,1,0,0,0-.26-.69,1,1,0,0,0-.71-.26h-.86a.25.25,0,0,0-.25.24Z"/><path class="cls-1" d="M152.45,96.21a2.31,2.31,0,0,1,.22-1,1.71,1.71,0,0,1,.63-.72,1.8,1.8,0,0,1,.94-.24,1.65,1.65,0,0,1,1.26.51,2,2,0,0,1,.53,1.35v.21a2.33,2.33,0,0,1-.22,1,1.65,1.65,0,0,1-.62.71,1.87,1.87,0,0,1-.95.25,1.64,1.64,0,0,1-1.3-.56,2.12,2.12,0,0,1-.49-1.47Zm.86.07a1.58,1.58,0,0,0,.25,1,.78.78,0,0,0,.68.34.79.79,0,0,0,.69-.35,1.77,1.77,0,0,0,.24-1,1.58,1.58,0,0,0-.25-.95.81.81,0,0,0-.68-.35.8.8,0,0,0-.68.35A1.76,1.76,0,0,0,153.31,96.28Z"/><path class="cls-1" d="M160.36,96.08l.36-1.61a.25.25,0,0,1,.24-.19h.33a.24.24,0,0,1,.24.3L160.6,98a.23.23,0,0,1-.23.18H160a.25.25,0,0,1-.23-.17l-.54-1.76a.24.24,0,0,0-.46,0L158.26,98a.25.25,0,0,1-.24.17h-.34a.25.25,0,0,1-.24-.18l-.92-3.44a.24.24,0,0,1,.23-.3h.34a.26.26,0,0,1,.24.19l.37,1.59a.24.24,0,0,0,.47,0l.48-1.63a.24.24,0,0,1,.23-.17h.29a.24.24,0,0,1,.23.17l.49,1.65A.24.24,0,0,0,160.36,96.08Z"/><path class="cls-1" d="M163.89,98.28a1.79,1.79,0,0,1-1.34-.53,1.94,1.94,0,0,1-.51-1.41v-.11a2.38,2.38,0,0,1,.22-1,1.77,1.77,0,0,1,.63-.72,1.65,1.65,0,0,1,.9-.25,1.49,1.49,0,0,1,1.21.51,2.16,2.16,0,0,1,.43,1.45v.35h-2.52a1.26,1.26,0,0,0,.32.77,1,1,0,0,0,.71.28,1.14,1.14,0,0,0,1-.49l.32.31a.25.25,0,0,1,0,.34,1.65,1.65,0,0,1-.47.35A1.85,1.85,0,0,1,163.89,98.28Zm-.11-3.37a.7.7,0,0,0-.57.26,1.28,1.28,0,0,0-.28.7h1.65v-.06a1.11,1.11,0,0,0-.23-.67A.75.75,0,0,0,163.78,94.91Z"/><path class="cls-1" d="M168.12,95.08a2,2,0,0,0-.35,0,.79.79,0,0,0-.77.41.27.27,0,0,0,0,.12V98a.24.24,0,0,1-.24.24h-.39a.24.24,0,0,1-.24-.24V94.52a.24.24,0,0,1,.24-.24h.59l0,.44a1,1,0,0,1,.87-.51.72.72,0,0,1,.31.05Z"/><path class="cls-1" d="M170.3,98.28a1.77,1.77,0,0,1-1.33-.53,1.9,1.9,0,0,1-.52-1.41v-.11a2.38,2.38,0,0,1,.23-1,1.74,1.74,0,0,1,.62-.72,1.65,1.65,0,0,1,.9-.25,1.51,1.51,0,0,1,1.22.51,2.22,2.22,0,0,1,.43,1.45v.35h-2.52a1.16,1.16,0,0,0,.32.77.93.93,0,0,0,.7.28,1.15,1.15,0,0,0,1-.49l.31.31a.24.24,0,0,1,0,.34,1.8,1.8,0,0,1-.47.35A1.92,1.92,0,0,1,170.3,98.28Zm-.1-3.37a.74.74,0,0,0-.58.26,1.36,1.36,0,0,0-.28.7H171v-.06a1.11,1.11,0,0,0-.23-.67A.72.72,0,0,0,170.2,94.91Z"/><path class="cls-1" d="M172.36,96.21a2.31,2.31,0,0,1,.41-1.45,1.31,1.31,0,0,1,1.11-.55,1.39,1.39,0,0,1,.63.14.24.24,0,0,0,.36-.21V92.87a.24.24,0,0,1,.24-.24h.38a.24.24,0,0,1,.24.24V98a.23.23,0,0,1-.24.24H175l0-.4a1.28,1.28,0,0,1-1,.48,1.29,1.29,0,0,1-1.09-.56A2.44,2.44,0,0,1,172.36,96.21Zm.86.08a1.64,1.64,0,0,0,.23.93.71.71,0,0,0,.64.34.82.82,0,0,0,.75-.42.31.31,0,0,0,0-.13V95.47a.28.28,0,0,0,0-.13.79.79,0,0,0-.74-.41.73.73,0,0,0-.65.34A1.83,1.83,0,0,0,173.22,96.29Z"/><path class="cls-1" d="M181.84,96.28a2.45,2.45,0,0,1-.4,1.46,1.31,1.31,0,0,1-1.1.54,1.25,1.25,0,0,1-1.06-.5l0,.42h-.79V92.63h.87v2a1.25,1.25,0,0,1,1-.45,1.3,1.3,0,0,1,1.11.53,2.47,2.47,0,0,1,.4,1.49Zm-.87-.07a1.66,1.66,0,0,0-.22-1,.72.72,0,0,0-.64-.32.79.79,0,0,0-.79.5v1.62a.81.81,0,0,0,.8.51.72.72,0,0,0,.62-.31,1.59,1.59,0,0,0,.23-.93Z"/><path class="cls-1" d="M183.87,96.94l.79-2.66h.92l-1.53,4.52a1.26,1.26,0,0,1-1.2,1,1.41,1.41,0,0,1-.42-.07V99h.17a.82.82,0,0,0,.49-.12.79.79,0,0,0,.26-.41l.13-.34-1.36-3.9h.94Z"/><path class="cls-1" d="M189.94,98.2h-.37a.25.25,0,0,1-.25-.24V94.31a.25.25,0,0,0-.32-.24l-.95.33v-.57a.25.25,0,0,1,.16-.23l1.86-.7h.11V98A.24.24,0,0,1,189.94,98.2Z"/><path class="cls-1" d="M195.37,96A2.93,2.93,0,0,1,195,97.7a1.69,1.69,0,0,1-2.54,0A2.82,2.82,0,0,1,192,96v-.91a2.87,2.87,0,0,1,.42-1.71,1.73,1.73,0,0,1,2.55,0,2.83,2.83,0,0,1,.43,1.67Zm-.87-1a2.2,2.2,0,0,0-.2-1.09.67.67,0,0,0-.63-.34.68.68,0,0,0-.62.32,2,2,0,0,0-.21,1v1.2a2.27,2.27,0,0,0,.2,1.1.68.68,0,0,0,.64.36.66.66,0,0,0,.61-.33,2.07,2.07,0,0,0,.21-1Z"/><path class="cls-1" d="M199.4,94.31a1.24,1.24,0,0,1-.73,1.17,1.57,1.57,0,0,1,.63.53,1.37,1.37,0,0,1,.22.75,1.4,1.4,0,0,1-.47,1.11,1.79,1.79,0,0,1-1.23.41,1.84,1.84,0,0,1-1.24-.41,1.41,1.41,0,0,1-.46-1.11,1.35,1.35,0,0,1,.22-.76,1.45,1.45,0,0,1,.62-.52,1.34,1.34,0,0,1-.53-.47,1.29,1.29,0,0,1-.19-.7,1.41,1.41,0,0,1,.42-1.07,1.66,1.66,0,0,1,1.16-.39,1.68,1.68,0,0,1,1.16.39A1.41,1.41,0,0,1,199.4,94.31Zm-.75,2.41a.85.85,0,0,0-.23-.63.88.88,0,0,0-1.21,0,.87.87,0,0,0-.23.63.85.85,0,0,0,.23.62.82.82,0,0,0,.61.23.8.8,0,0,0,.61-.22A.85.85,0,0,0,198.65,96.72Zm-.11-2.37a.8.8,0,0,0-.2-.57.65.65,0,0,0-.52-.22.69.69,0,0,0-.53.21.86.86,0,0,0-.19.58.81.81,0,0,0,.2.57.65.65,0,0,0,.52.22.67.67,0,0,0,.53-.22A.8.8,0,0,0,198.54,94.35Z"/><path class="cls-1" d="M201,94.28a.24.24,0,0,1,.24.24v4a1.33,1.33,0,0,1-.29.92,1.12,1.12,0,0,1-.86.32,1.76,1.76,0,0,1-.46-.06V99a1.39,1.39,0,0,0,.3,0c.29,0,.44-.16.45-.47V94.52a.24.24,0,0,1,.24-.24Zm-.7-1a.49.49,0,1,1,1,0,.44.44,0,0,1-.13.33.56.56,0,0,1-.72,0A.44.44,0,0,1,200.3,93.26Z"/><path class="cls-1" d="M202,96.21a2.31,2.31,0,0,1,.23-1,1.71,1.71,0,0,1,.63-.72,1.79,1.79,0,0,1,.93-.24,1.67,1.67,0,0,1,1.27.51,2,2,0,0,1,.53,1.35v.21a2.33,2.33,0,0,1-.22,1,1.67,1.67,0,0,1-.63.71,1.81,1.81,0,0,1-.94.25,1.64,1.64,0,0,1-1.3-.56,2.13,2.13,0,0,1-.5-1.47Zm.87.07a1.58,1.58,0,0,0,.25,1,.78.78,0,0,0,.68.34.77.77,0,0,0,.68-.35,1.69,1.69,0,0,0,.25-1,1.65,1.65,0,0,0-.25-.95.82.82,0,0,0-.69-.35.8.8,0,0,0-.67.35A1.69,1.69,0,0,0,202.87,96.28Z"/><path class="cls-1" d="M209.71,96.28a2.45,2.45,0,0,1-.4,1.46,1.31,1.31,0,0,1-1.11.54,1.25,1.25,0,0,1-1-.5l-.05.42h-.53a.25.25,0,0,1-.25-.24V92.88a.25.25,0,0,1,.25-.25h.37a.25.25,0,0,1,.25.25v1.26a.25.25,0,0,0,.36.22,1.33,1.33,0,0,1,.65-.15,1.29,1.29,0,0,1,1.1.53,2.4,2.4,0,0,1,.41,1.49Zm-.87-.07a1.66,1.66,0,0,0-.22-1,.72.72,0,0,0-.64-.32.79.79,0,0,0-.76.44.27.27,0,0,0,0,.12V97a.31.31,0,0,0,0,.13.79.79,0,0,0,.76.45.74.74,0,0,0,.63-.31,1.59,1.59,0,0,0,.23-.93Z"/><path class="cls-1" d="M212.59,97.14a.39.39,0,0,0-.19-.36,2,2,0,0,0-.63-.22,2.92,2.92,0,0,1-.74-.24,1,1,0,0,1-.65-.92,1,1,0,0,1,.42-.85,1.63,1.63,0,0,1,1.07-.34,1.72,1.72,0,0,1,1.12.34,1.15,1.15,0,0,1,.43.91h-.87a.56.56,0,0,0-.19-.43.69.69,0,0,0-.49-.16.74.74,0,0,0-.46.13.43.43,0,0,0-.18.36.36.36,0,0,0,.17.32,2.2,2.2,0,0,0,.67.22,3.51,3.51,0,0,1,.8.27,1.16,1.16,0,0,1,.43.38,1,1,0,0,1,.14.54A1,1,0,0,1,213,98a1.79,1.79,0,0,1-1.13.33,1.92,1.92,0,0,1-.84-.18,1.31,1.31,0,0,1-.58-.48,1.12,1.12,0,0,1-.21-.65h.85a.6.6,0,0,0,.23.48.89.89,0,0,0,.56.17.83.83,0,0,0,.52-.14A.39.39,0,0,0,212.59,97.14Z"/><path class="cls-1" d="M5.27,78.57v8.61a1.1,1.1,0,0,1-1.1,1.1H1.1A1.1,1.1,0,0,1,0,87.18V58.71a1.1,1.1,0,0,1,1.1-1.1H10a10,10,0,0,1,5.08,1.26,8.45,8.45,0,0,1,3.36,3.59,11.52,11.52,0,0,1,1.18,5.3A9.64,9.64,0,0,1,17,74.87a9.53,9.53,0,0,1-7.12,2.6H6.37A1.11,1.11,0,0,0,5.27,78.57Zm0-7.32a1.1,1.1,0,0,0,1.1,1.1H10a4.12,4.12,0,0,0,3.19-1.18,4.72,4.72,0,0,0,1.1-3.37,5.7,5.7,0,0,0-1.1-3.64,3.82,3.82,0,0,0-3.06-1.44H6.37a1.11,1.11,0,0,0-1.1,1.11Z"/><path class="cls-1" d="M39.11,82H31.53a1.1,1.1,0,0,0-1.06.81l-1.31,4.71a1.1,1.1,0,0,1-1.06.8H24.82a1.1,1.1,0,0,1-1.05-1.43l8.85-28.47a1.09,1.09,0,0,1,1.05-.77h3.26a1.09,1.09,0,0,1,1,.77l8.9,28.47a1.1,1.1,0,0,1-1.05,1.43H42.55a1.1,1.1,0,0,1-1.06-.8l-1.32-4.72A1.11,1.11,0,0,0,39.11,82Zm-5.55-5.12h3.51a1.11,1.11,0,0,0,1.06-1.4l-1.77-6.28a1.09,1.09,0,0,0-2.11,0L32.5,75.45A1.1,1.1,0,0,0,33.56,76.84Z"/><path class="cls-1" d="M63.86,77.05H61.49a1.1,1.1,0,0,0-1.1,1.1v9a1.1,1.1,0,0,1-1.1,1.1H56.21a1.1,1.1,0,0,1-1.1-1.1V58.71a1.1,1.1,0,0,1,1.1-1.1h8.41c3,0,5.36.8,7,2.42a9.18,9.18,0,0,1,2.46,6.85A11,11,0,0,1,73,72.11,7.93,7.93,0,0,1,70.27,75a1.08,1.08,0,0,0-.38,1.33L75.05,88v.29H70.11a1.09,1.09,0,0,1-1-.67l-4.23-9.89A1.09,1.09,0,0,0,63.86,77.05Zm-3.47-6.22a1.1,1.1,0,0,0,1.1,1.1h3.15a3.94,3.94,0,0,0,3.08-1.21,4.85,4.85,0,0,0,1.09-3.34,5.22,5.22,0,0,0-1-3.41,3.87,3.87,0,0,0-3.16-1.25H61.49a1.11,1.11,0,0,0-1.1,1.11Z"/><path class="cls-1" d="M100.77,62.72H95.13A1.11,1.11,0,0,0,94,63.83V87.18a1.1,1.1,0,0,1-1.1,1.1H89.86a1.1,1.1,0,0,1-1.1-1.1V63.83a1.11,1.11,0,0,0-1.1-1.11H82.13a1.1,1.1,0,0,1-1.1-1.1V58.71a1.1,1.1,0,0,1,1.1-1.1h18.64a1.1,1.1,0,0,1,1.1,1.1v2.91A1.1,1.1,0,0,1,100.77,62.72Z"/><path class="cls-1" d="M130,88.28h-3.5a1.1,1.1,0,0,1-1-.6l-7.88-15.49a1.1,1.1,0,0,0-2.08.5V87.18a1.1,1.1,0,0,1-1.1,1.1h-3.07a1.1,1.1,0,0,1-1.1-1.1V58.71a1.1,1.1,0,0,1,1.1-1.1h3.5a1.1,1.1,0,0,1,1,.6l7.89,15.53a1.11,1.11,0,0,0,2.09-.5V58.71a1.1,1.1,0,0,1,1.1-1.1H130a1.1,1.1,0,0,1,1.1,1.1V87.18A1.1,1.1,0,0,1,130,88.28Z"/><path class="cls-1" d="M155.39,75h-7.92a1.1,1.1,0,0,0-1.1,1.1v6a1.1,1.1,0,0,0,1.1,1.1h9.68a1.1,1.1,0,0,1,1.1,1.1v2.88a1.1,1.1,0,0,1-1.1,1.1h-15a1.1,1.1,0,0,1-1.1-1.1V58.71a1.1,1.1,0,0,1,1.1-1.1h14.92a1.1,1.1,0,0,1,1.1,1.1v2.91a1.1,1.1,0,0,1-1.1,1.1h-9.65a1.11,1.11,0,0,0-1.1,1.11v5.11a1.1,1.1,0,0,0,1.1,1.1h7.92a1.1,1.1,0,0,1,1.1,1.1v2.75A1.1,1.1,0,0,1,155.39,75Z"/><path class="cls-1" d="M175.49,77.05h-2.37a1.1,1.1,0,0,0-1.1,1.1v9a1.1,1.1,0,0,1-1.1,1.1h-3.07a1.1,1.1,0,0,1-1.1-1.1V58.71a1.1,1.1,0,0,1,1.1-1.1h8.41c3,0,5.35.8,7,2.42a9.18,9.18,0,0,1,2.46,6.85,11,11,0,0,1-1.13,5.23A7.93,7.93,0,0,1,181.9,75a1.08,1.08,0,0,0-.37,1.33L186.68,88v.29h-4.93a1.1,1.1,0,0,1-1-.67l-4.22-9.89A1.11,1.11,0,0,0,175.49,77.05ZM172,70.83a1.1,1.1,0,0,0,1.1,1.1h3.15a3.92,3.92,0,0,0,3.08-1.21,4.8,4.8,0,0,0,1.09-3.34,5.16,5.16,0,0,0-1-3.41,3.86,3.86,0,0,0-3.15-1.25h-3.14a1.11,1.11,0,0,0-1.1,1.11Z"/><path class="cls-1" d="M208.39,80.23a3.54,3.54,0,0,0-1-2.75,13,13,0,0,0-3.8-2,24.18,24.18,0,0,1-4.34-2.1,8.65,8.65,0,0,1-4.36-7.6A8.46,8.46,0,0,1,196,61.32a8,8,0,0,1,3.35-3,10.85,10.85,0,0,1,4.92-1.1,9.91,9.91,0,0,1,4.88,1.19,8.5,8.5,0,0,1,3.34,3.36,9.79,9.79,0,0,1,1.12,3.71,1.1,1.1,0,0,1-1.1,1.22h-3.09a1.11,1.11,0,0,1-1.09-1,3.82,3.82,0,0,0-4.15-3.48,4.33,4.33,0,0,0-3,1,3.33,3.33,0,0,0-1.07,2.58,3.11,3.11,0,0,0,1.26,2.51,13.25,13.25,0,0,0,3.7,1.89,15.47,15.47,0,0,1,6.56,4,8.86,8.86,0,0,1,2.05,6,8,8,0,0,1-2.51,6.25,9.74,9.74,0,0,1-6.77,2.26A11.28,11.28,0,0,1,199,87.41a9.12,9.12,0,0,1-3.7-3.55,10,10,0,0,1-1.22-4,1.11,1.11,0,0,1,1.1-1.21h3.1a1.09,1.09,0,0,1,1.09,1q.47,4.1,5,4.1a4.37,4.37,0,0,0,2.94-.92A3.21,3.21,0,0,0,208.39,80.23Z"/><path class="cls-1" d="M10.22,37.9V47A4.13,4.13,0,0,1,6.1,51.13h-2A4.12,4.12,0,0,1,0,47V4.12A4.11,4.11,0,0,1,4.12,0H16.91a16.87,16.87,0,0,1,8.6,2.16,14.7,14.7,0,0,1,5.8,6.14,19.61,19.61,0,0,1,2.05,9.05q0,7.47-4.44,12T16.74,33.78H14.33A4.11,4.11,0,0,0,10.22,37.9Zm0-17.75a4.11,4.11,0,0,0,4.11,4.11h2.58a5.66,5.66,0,0,0,4.53-1.79,7.44,7.44,0,0,0,1.56-5,9.34,9.34,0,0,0-1.61-5.73A5.24,5.24,0,0,0,17,9.52h-2.7a4.11,4.11,0,0,0-4.11,4.11Z"/><path class="cls-1" d="M58.37,29.43H50.54a4.11,4.11,0,0,0-4.12,4.11v4a4.12,4.12,0,0,0,4.12,4.12H61.28a4.11,4.11,0,0,1,4.12,4.11V47a4.12,4.12,0,0,1-4.12,4.12h-21A4.13,4.13,0,0,1,36.2,47V4.12A4.12,4.12,0,0,1,40.32,0h21a4.12,4.12,0,0,1,4.12,4.12V5.4a4.13,4.13,0,0,1-4.12,4.12H50.54a4.11,4.11,0,0,0-4.12,4.11v2.55a4.12,4.12,0,0,0,4.12,4.12h7.83a4.12,4.12,0,0,1,4.12,4.11v.9A4.13,4.13,0,0,1,58.37,29.43Z"/><path class="cls-1" d="M127.6,37.9V47a4.13,4.13,0,0,1-4.12,4.12h-2A4.12,4.12,0,0,1,117.38,47V4.12A4.11,4.11,0,0,1,121.49,0h12.8a16.87,16.87,0,0,1,8.6,2.16,14.62,14.62,0,0,1,5.79,6.14,19.49,19.49,0,0,1,2.06,9.05q0,7.47-4.44,12t-12.18,4.48h-2.41A4.11,4.11,0,0,0,127.6,37.9Zm0-17.75a4.11,4.11,0,0,0,4.11,4.11h2.58a5.66,5.66,0,0,0,4.53-1.79,7.49,7.49,0,0,0,1.55-5,9.34,9.34,0,0,0-1.6-5.73,5.24,5.24,0,0,0-4.36-2.17h-2.7a4.11,4.11,0,0,0-4.11,4.11Z"/><path class="cls-1" d="M167.91,41.65h9.56a4.11,4.11,0,0,1,4.11,4.11V47a4.12,4.12,0,0,1-4.11,4.12H157.7A4.12,4.12,0,0,1,153.58,47V4.12A4.11,4.11,0,0,1,157.7,0h2a4.11,4.11,0,0,1,4.12,4.12V37.53A4.12,4.12,0,0,0,167.91,41.65Z"/><path class="cls-1" d="M207.92,29.43H197.44a2.78,2.78,0,0,0-2.79,2.79v5.31a4.12,4.12,0,0,0,4.11,4.12h12.07a2.78,2.78,0,0,1,2.79,2.79v3.9a2.79,2.79,0,0,1-2.79,2.79H187.22a2.79,2.79,0,0,1-2.79-2.79V2.79A2.79,2.79,0,0,1,187.22,0h23.67a2.79,2.79,0,0,1,2.79,2.79V6.73a2.79,2.79,0,0,1-2.79,2.79H197.44a2.78,2.78,0,0,0-2.79,2.79v5.2a2.78,2.78,0,0,0,2.79,2.79h10.48a2.79,2.79,0,0,1,2.79,2.79v3.55A2.79,2.79,0,0,1,207.92,29.43Z"/><path class="cls-2" d="M93.77,48.53c-11.45,0-20.77-10.3-20.77-23s9.32-23,20.77-23,20.76,10.3,20.76,23S105.22,48.53,93.77,48.53Zm0-41.6c-9.29,0-16.85,8.36-16.85,18.63s7.56,18.63,16.85,18.63,16.85-8.35,16.85-18.63S103.06,6.93,93.77,6.93Z"/><path class="cls-3" d="M73,25.56a24.33,24.33,0,0,1,5-14.87,24,24,0,0,0-7.31,17.47c0,12.66,9.32,23,20.77,23A20,20,0,0,0,107.22,43a19.52,19.52,0,0,1-13.45,5.49C82.32,48.53,73,38.23,73,25.56Z"/><path class="cls-4" d="M110.62,25.56c0-10.27-7.56-18.63-16.85-18.63a16.27,16.27,0,0,0-13,6.83A15.84,15.84,0,0,1,91.42,9.53c9.29,0,16.85,8.36,16.85,18.63A19.79,19.79,0,0,1,104.44,40,19.42,19.42,0,0,0,110.62,25.56Z"/><path class="cls-5" d="M78,10.69h0A20.24,20.24,0,0,1,91.42,2.75a18.31,18.31,0,0,0-2.35-.15c-11.45,0-20.77,10.3-20.77,23A24,24,0,0,0,75.61,43a24.36,24.36,0,0,1-5-14.88A24,24,0,0,1,78,10.69Z"/><path class="cls-6" d="M102.09,13.76a19.75,19.75,0,0,1,3.82,11.8C105.91,35,99.6,42.74,91.42,44a15.21,15.21,0,0,0,2.35.18A15.84,15.84,0,0,0,104.45,40a19.79,19.79,0,0,0,3.82-11.8A19.41,19.41,0,0,0,102.09,13.76Z"/><path class="cls-7" d="M91.42,2.75a18.19,18.19,0,0,1,2.35-.15,19.52,19.52,0,0,1,13.45,5.49,19.48,19.48,0,0,0-31.61,0A19.57,19.57,0,0,1,89.07,2.6,18.31,18.31,0,0,1,91.42,2.75Z"/><path class="cls-8" d="M92.57,44.15c-.39,0-.77-.08-1.15-.14a16.51,16.51,0,0,0,10.67-6.64,15.61,15.61,0,0,1-21.35,0A16.44,16.44,0,0,0,92.57,44.15Z"/></g></g></svg>